# xmcd
#
# Track frame offsets:
#	150
#	25647
#	48500
#	68650
#	90332
#	110667
#	129100
#	153432
#	169870
#	193367
#
# Disc length: 2849 seconds
#
# Revision: 1
# Processed by: cddbd v1.5.1PL0 Copyright (c) Steve Scherf et al.
# Submitted via: CDex 1.50Beta5
#
DISCID=7b0b1f0a
DTITLE=田原俊彦 - DOUBLE“T”
DYEAR=1990
DGENRE=Pop
TTITLE0=女神よ
TTITLE1=それは幻の海辺
TTITLE2=Second Chance
TTITLE3=君なしじゃいられない
TTITLE4=ジャングルJungle
TTITLE5=夜を盗む
TTITLE6=シルエットには踊れない
TTITLE7=Mondayを吊せ
TTITLE8=月のイヤリング
TTITLE9=SAIKOH!!
EXTD=
EXTT0=
EXTT1=
EXTT2=
EXTT3=
EXTT4=
EXTT5=
EXTT6=
EXTT7=
EXTT8=
EXTT9=
PLAYORDER=
